<?xml version="1.0" encoding="iso-8859-1"?>
<!-- Generator: Adobe Illustrator 19.0.0, SVG Export Plug-In . SVG Version: 6.00 Build 0)  -->
<svg    version="1.1" xmlns="http://www.w3.org/2000/svg" xmlns:xlink="http://www.w3.org/1999/xlink">
	<svg id="foot1" class="foot"  x="0px" y="0px"
		viewBox="0 0 489.978 489.978" style="fill: var(--color-fill); enable-background:new 0 0 489.978 489.978;" xml:space="preserve">	

				<path d="M184.231,239.9c43.9,23.3,64.5,75.4,49.8,123.3c-2.7,8.6-5.1,17.5-7,26.4c-7.8,40,2.7,90.2,46.7,99.1
					c22.2,4.7,44.3-3.9,59.9-20.2c46.5-50.5,32.3-202.6,31.9-240.7c0-16.7-0.4-33.8-7-49.4c-14.8-35-56.4-49-93.3-58.7
					c-60.6-22.1-98.8,5.8-111.6,26.4S131.531,212.5,184.231,239.9z"/>
				<ellipse cx="141.831" cy="44.3" rx="31.5" ry="44.3"/>
				<ellipse cx="214.631" cy="51.7" rx="18.7" ry="26.4"/>
				<ellipse cx="272.931" cy="68" rx="16.7" ry="23.3"/>
				<ellipse cx="326.131" cy="81.7" rx="14.8" ry="20.6"/>
				<ellipse transform="matrix(-0.2014 0.9795 -0.9795 -0.2014 546.9331 -227.4809)" cx="366.2" cy="109.218" rx="18.3" ry="13.2"/>

	</svg>

	<svg  id="foot2" class="foot" x="0px" y="0px"
	 viewBox="0 0 25.799 25.799" style="fill: var(--color-fill); enable-background:new 0 0 25.799 25.799;" xml:space="preserve">

	<path d="M9.271,5.611c-0.418,0.08-0.854-0.347-0.975-0.953c-0.12-0.608,0.121-1.163,0.54-1.24
		C9.255,3.336,9.69,3.764,9.811,4.37C9.933,4.977,9.688,5.53,9.271,5.611z M8.421,5.938c0.011-0.502-0.26-0.916-0.606-0.924
		C7.468,5.007,7.179,5.405,7.168,5.909c-0.012,0.5,0.258,0.914,0.605,0.921C8.117,6.839,8.408,6.44,8.421,5.938z M11.846,3.457
		c-0.001-0.777-0.425-1.407-0.948-1.406c-0.524-0.001-0.95,0.63-0.95,1.407c0,0.775,0.424,1.406,0.949,1.407
		C11.42,4.864,11.846,4.233,11.846,3.457z M6.987,11.449c-0.153,4.592,2.956,6.001,2.956,10.707c0,1.729,1.154,3.643,3.156,3.643
		c2.938,0,3.645-1.597,3.705-3.408c0.113-3.37-3.08-3.753-3.08-6.722c0-3.715,4.094-3.688,4.094-7.062
		c0-2.329-2.031-2.595-3.11-2.595C12.691,6.013,7.141,6.858,6.987,11.449z M18.774,2.668c0.206-1.324-0.347-2.514-1.235-2.654
		s-1.775,0.82-1.982,2.145c-0.205,1.323,0.347,2.513,1.236,2.653C17.682,4.953,18.567,3.993,18.774,2.668z M14.778,2.883
		c0.089-0.935-0.357-1.742-1.003-1.805s-1.243,0.645-1.334,1.581c-0.092,0.936,0.356,1.742,1.002,1.805
		C14.088,4.525,14.685,3.818,14.778,2.883z"/>
	</svg>

</svg>
